<?xml version="1.0" encoding="UTF-8" standalone="no"?>
<svg
   xmlns:dc="http://purl.org/dc/elements/1.1/"
   xmlns:cc="http://creativecommons.org/ns#"
   xmlns:rdf="http://www.w3.org/1999/02/22-rdf-syntax-ns#"
   xmlns:svg="http://www.w3.org/2000/svg"
   xmlns="http://www.w3.org/2000/svg"
   xmlns:sodipodi="http://sodipodi.sourceforge.net/DTD/sodipodi-0.dtd"
   xmlns:inkscape="http://www.inkscape.org/namespaces/inkscape"
   width="210mm"
   height="297mm"
   viewBox="0 0 210 297"
   version="1.1"
   id="svg8"
   inkscape:version="1.0 (4035a4fb49, 2020-05-01)"
   sodipodi:docname="icon.svg">
  <defs
     id="defs2" />
  <sodipodi:namedview
     inkscape:snap-object-midpoints="true"
     inkscape:snap-page="true"
     id="base"
     pagecolor="#ffffff"
     bordercolor="#666666"
     borderopacity="1.0"
     inkscape:pageopacity="0.0"
     inkscape:pageshadow="2"
     inkscape:zoom="0.49497475"
     inkscape:cx="407.47155"
     inkscape:cy="562.92507"
     inkscape:document-units="mm"
     inkscape:current-layer="layer1"
     inkscape:document-rotation="0"
     showgrid="false"
     inkscape:window-width="958"
     inkscape:window-height="991"
     inkscape:window-x="-8"
     inkscape:window-y="0"
     inkscape:window-maximized="0" />
  <metadata
     id="metadata5">
    <rdf:RDF>
      <cc:Work
         rdf:about="">
        <dc:format>image/svg+xml</dc:format>
        <dc:type
           rdf:resource="http://purl.org/dc/dcmitype/StillImage" />
        <dc:title></dc:title>
      </cc:Work>
    </rdf:RDF>
  </metadata>
  <g
     inkscape:label="Layer 1"
     inkscape:groupmode="layer"
     id="layer1">
    <path
       d="m 104.96741,39.250446 a 109.24853,109.24853 0 0 0 -35.354963,5.892985 l 35.323743,52.123544 35.45707,-52.123544 a 109.24853,109.24853 0 0 0 -35.38897,-5.892985 109.24853,109.24853 0 0 0 -0.0384,0 z m 48.49075,29.92425 -38.48008,56.581514 a 12.160272,12.160273 0 0 1 -20.129142,-0.0219 L 56.541847,69.195261 0,148.50074 56.553207,227.82606 95.033272,171.24452 a 12.160272,12.160273 0 0 1 20.117788,0.0106 L 153.46952,227.80546 210,148.49995 Z M 105.07518,199.72458 69.620954,251.85944 a 109.24853,109.24853 0 0 0 35.383336,5.89012 109.24853,109.24853 0 0 0 35.40034,-5.89578 z"
       style="fill:#94d041;fill-opacity:1;stroke:none;stroke-width:21.7038;stroke-linecap:round;stroke-linejoin:round;stroke-miterlimit:4;stroke-dasharray:none;stroke-dashoffset:0;stroke-opacity:1"
       id="circle852" />
  </g>
</svg>
